<?xml version="1.0" encoding="iso-8859-1"?>
<!-- Generator: Adobe Illustrator 19.0.0, SVG Export Plug-In . SVG Version: 6.00 Build 0)  -->
<svg version="1.1" id="Capa_1" xmlns="http://www.w3.org/2000/svg" xmlns:xlink="http://www.w3.org/1999/xlink" x="0px" y="0px"
	 viewBox="0 0 496 496" style="enable-background:new 0 0 496 496;" xml:space="preserve">
<linearGradient id="SVGID_1_" gradientUnits="userSpaceOnUse" x1="-58.7211" y1="554.8858" x2="25.5579" y2="639.1599" gradientTransform="matrix(8 0 0 -8 399.0458 5013.0024)">
	<stop  offset="0" style="stop-color:#AA6100"/>
	<stop  offset="0.093" style="stop-color:#AC6400"/>
	<stop  offset="0.165" style="stop-color:#B26E00"/>
	<stop  offset="0.231" style="stop-color:#BB7E00"/>
	<stop  offset="0.292" style="stop-color:#C99600"/>
	<stop  offset="0.35" style="stop-color:#DBB400"/>
	<stop  offset="0.405" style="stop-color:#F0D800"/>
	<stop  offset="0.439" style="stop-color:#FFF200"/>
	<stop  offset="0.474" style="stop-color:#FFD705"/>
	<stop  offset="0.519" style="stop-color:#FFBB0A"/>
	<stop  offset="0.565" style="stop-color:#FFA80E"/>
	<stop  offset="0.611" style="stop-color:#FF9C10"/>
	<stop  offset="0.658" style="stop-color:#FF9811"/>
	<stop  offset="0.732" style="stop-color:#FF9A12"/>
	<stop  offset="0.758" style="stop-color:#FFA118"/>
	<stop  offset="0.777" style="stop-color:#FFAC21"/>
	<stop  offset="0.793" style="stop-color:#FFBD2E"/>
	<stop  offset="0.806" style="stop-color:#FFD33F"/>
	<stop  offset="0.809" style="stop-color:#FFDA44"/>
	<stop  offset="0.879" style="stop-color:#DDA928"/>
	<stop  offset="0.96" style="stop-color:#B8750B"/>
	<stop  offset="1" style="stop-color:#AA6100"/>
</linearGradient>
<path style="fill:url(#SVGID_1_);" d="M485.289,323.304c-3.027-2.055-7.062-1.795-9.8,0.632
	c-72.88,64.258-184.051,57.269-248.31-15.611s-57.269-184.051,15.61-248.31c20.13-17.748,44.053-30.656,69.939-37.736
	c4.264-1.156,6.784-5.55,5.628-9.815c-0.764-2.817-3-4.994-5.836-5.681C293.75,2.251,274.505-0.027,255.193,0
	C118.227,0.008,7.199,111.047,7.207,248.014C7.214,384.98,118.254,496.008,255.22,496c104.321-0.006,197.486-65.296,233.093-163.352
	C489.561,329.209,488.316,325.361,485.289,323.304L485.289,323.304z M255.193,480c-128.13-0.022-231.982-103.909-231.961-232.039
	S127.142,15.979,255.272,16c8.116,0.001,16.226,0.429,24.298,1.28c-96.578,43.782-139.378,157.566-95.596,254.144
	s157.566,139.378,254.144,95.596c8.009-3.631,15.759-7.807,23.196-12.501C421.347,431.479,341.911,479.837,255.193,480z"/>
<g>
</g>
<g>
</g>
<g>
</g>
<g>
</g>
<g>
</g>
<g>
</g>
<g>
</g>
<g>
</g>
<g>
</g>
<g>
</g>
<g>
</g>
<g>
</g>
<g>
</g>
<g>
</g>
<g>
</g>
</svg>
