<?xml version="1.0" encoding="iso-8859-1"?>
<!-- Generator: Adobe Illustrator 19.0.0, SVG Export Plug-In . SVG Version: 6.00 Build 0)  -->
<svg version="1.1" id="Capa_1" xmlns="http://www.w3.org/2000/svg" xmlns:xlink="http://www.w3.org/1999/xlink" x="0px" y="0px"
	 viewBox="0 0 496.045 496.045" style="enable-background:new 0 0 496.045 496.045;" xml:space="preserve">
<linearGradient id="SVGID_1_" gradientUnits="userSpaceOnUse" x1="-52.0064" y1="556.9882" x2="42.5716" y2="651.5682" gradientTransform="matrix(8 0 0 -8 398.8772 5013.2007)">
	<stop  offset="0" style="stop-color:#AA6100"/>
	<stop  offset="0.093" style="stop-color:#AC6400"/>
	<stop  offset="0.165" style="stop-color:#B26E00"/>
	<stop  offset="0.231" style="stop-color:#BB7E00"/>
	<stop  offset="0.292" style="stop-color:#C99600"/>
	<stop  offset="0.35" style="stop-color:#DBB400"/>
	<stop  offset="0.405" style="stop-color:#F0D800"/>
	<stop  offset="0.439" style="stop-color:#FFF200"/>
	<stop  offset="0.474" style="stop-color:#FFD705"/>
	<stop  offset="0.519" style="stop-color:#FFBB0A"/>
	<stop  offset="0.565" style="stop-color:#FFA80E"/>
	<stop  offset="0.611" style="stop-color:#FF9C10"/>
	<stop  offset="0.658" style="stop-color:#FF9811"/>
	<stop  offset="0.732" style="stop-color:#FF9A12"/>
	<stop  offset="0.758" style="stop-color:#FFA118"/>
	<stop  offset="0.777" style="stop-color:#FFAC21"/>
	<stop  offset="0.793" style="stop-color:#FFBD2E"/>
	<stop  offset="0.806" style="stop-color:#FFD33F"/>
	<stop  offset="0.809" style="stop-color:#FFDA44"/>
	<stop  offset="0.879" style="stop-color:#DDA928"/>
	<stop  offset="0.96" style="stop-color:#B8750B"/>
	<stop  offset="1" style="stop-color:#AA6100"/>
</linearGradient>
<path style="fill:url(#SVGID_1_);" d="M401.49,227.518c-13.419-64.567-76.474-106.166-141.112-93.096
	c-27.106-55.601-94.153-78.7-149.753-51.594s-78.7,94.153-51.594,149.753c2.085,4.277,4.44,8.416,7.052,12.393
	c-59.148,29.709-83.014,101.742-53.305,160.89c17.188,34.221,49.695,58.167,87.473,64.438c1.577,1.098,3.447,1.697,5.368,1.72h266.4
	c16.136,0.054,32.123-3.086,47.04-9.24c63.384-26.013,93.679-98.484,67.666-161.868c-15.057-36.688-46.746-63.966-85.266-73.396
	H401.49z M64.018,184.022c0.046-53.019,43.063-95.963,96.083-95.917c35.368,0.03,67.855,19.505,84.549,50.685
	c-44.258,15.422-75.521,55.156-80.096,101.8c-26.657-10.7-56.283-11.401-83.416-1.976C69.962,222.606,63.985,203.546,64.018,184.022
	L64.018,184.022z M412.954,448.022c-12.984,5.341-26.897,8.06-40.936,8h-252c-4.919-0.005-9.832-0.35-14.704-1.032h-0.088
	c-56.849-8.203-96.284-60.938-88.081-117.787s60.938-96.284,117.787-88.081c11.653,1.681,22.935,5.329,33.367,10.788
	c3.912,2.055,8.748,0.549,10.802-3.362c0.604-1.149,0.918-2.428,0.918-3.726v-0.8c0.022-57.438,46.603-103.982,104.04-103.96
	c51.008,0.02,94.474,37.03,102.624,87.384c0.528,3.304,3.055,5.93,6.336,6.584c58.539,11.603,96.588,68.464,84.985,127.003
	C470.951,404.612,446.519,434.279,412.954,448.022z"/>
<g>
	
		<linearGradient id="SVGID_2_" gradientUnits="userSpaceOnUse" x1="-73.0071" y1="577.994" x2="21.5629" y2="672.572" gradientTransform="matrix(8 0 0 -8 398.8772 5013.2007)">
		<stop  offset="0" style="stop-color:#AA6100"/>
		<stop  offset="0.093" style="stop-color:#AC6400"/>
		<stop  offset="0.165" style="stop-color:#B26E00"/>
		<stop  offset="0.231" style="stop-color:#BB7E00"/>
		<stop  offset="0.292" style="stop-color:#C99600"/>
		<stop  offset="0.35" style="stop-color:#DBB400"/>
		<stop  offset="0.405" style="stop-color:#F0D800"/>
		<stop  offset="0.439" style="stop-color:#FFF200"/>
		<stop  offset="0.474" style="stop-color:#FFD705"/>
		<stop  offset="0.519" style="stop-color:#FFBB0A"/>
		<stop  offset="0.565" style="stop-color:#FFA80E"/>
		<stop  offset="0.611" style="stop-color:#FF9C10"/>
		<stop  offset="0.658" style="stop-color:#FF9811"/>
		<stop  offset="0.732" style="stop-color:#FF9A12"/>
		<stop  offset="0.758" style="stop-color:#FFA118"/>
		<stop  offset="0.777" style="stop-color:#FFAC21"/>
		<stop  offset="0.793" style="stop-color:#FFBD2E"/>
		<stop  offset="0.806" style="stop-color:#FFD33F"/>
		<stop  offset="0.809" style="stop-color:#FFDA44"/>
		<stop  offset="0.879" style="stop-color:#DDA928"/>
		<stop  offset="0.96" style="stop-color:#B8750B"/>
		<stop  offset="1" style="stop-color:#AA6100"/>
	</linearGradient>
	<path style="fill:url(#SVGID_2_);" d="M160.018,64.022c4.418,0,8-3.582,8-8v-24c0-4.418-3.582-8-8-8s-8,3.582-8,8v24
		C152.018,60.441,155.599,64.022,160.018,64.022z"/>
	
		<linearGradient id="SVGID_3_" gradientUnits="userSpaceOnUse" x1="-73.0079" y1="577.9948" x2="21.5621" y2="672.5728" gradientTransform="matrix(8 0 0 -8 398.8772 5013.2007)">
		<stop  offset="0" style="stop-color:#AA6100"/>
		<stop  offset="0.093" style="stop-color:#AC6400"/>
		<stop  offset="0.165" style="stop-color:#B26E00"/>
		<stop  offset="0.231" style="stop-color:#BB7E00"/>
		<stop  offset="0.292" style="stop-color:#C99600"/>
		<stop  offset="0.35" style="stop-color:#DBB400"/>
		<stop  offset="0.405" style="stop-color:#F0D800"/>
		<stop  offset="0.439" style="stop-color:#FFF200"/>
		<stop  offset="0.474" style="stop-color:#FFD705"/>
		<stop  offset="0.519" style="stop-color:#FFBB0A"/>
		<stop  offset="0.565" style="stop-color:#FFA80E"/>
		<stop  offset="0.611" style="stop-color:#FF9C10"/>
		<stop  offset="0.658" style="stop-color:#FF9811"/>
		<stop  offset="0.732" style="stop-color:#FF9A12"/>
		<stop  offset="0.758" style="stop-color:#FFA118"/>
		<stop  offset="0.777" style="stop-color:#FFAC21"/>
		<stop  offset="0.793" style="stop-color:#FFBD2E"/>
		<stop  offset="0.806" style="stop-color:#FFD33F"/>
		<stop  offset="0.809" style="stop-color:#FFDA44"/>
		<stop  offset="0.879" style="stop-color:#DDA928"/>
		<stop  offset="0.96" style="stop-color:#B8750B"/>
		<stop  offset="1" style="stop-color:#AA6100"/>
	</linearGradient>
	<path style="fill:url(#SVGID_3_);" d="M8.018,192.022h24c4.418,0,8-3.582,8-8s-3.582-8-8-8h-24c-4.418,0-8,3.582-8,8
		S3.599,192.022,8.018,192.022z"/>
</g>
<linearGradient id="SVGID_4_" gradientUnits="userSpaceOnUse" x1="-76.6285" y1="581.6113" x2="17.9495" y2="676.1913" gradientTransform="matrix(8 0 0 -8 398.8772 5013.2007)">
	<stop  offset="0" style="stop-color:#AA6100"/>
	<stop  offset="0.093" style="stop-color:#AC6400"/>
	<stop  offset="0.165" style="stop-color:#B26E00"/>
	<stop  offset="0.231" style="stop-color:#BB7E00"/>
	<stop  offset="0.292" style="stop-color:#C99600"/>
	<stop  offset="0.35" style="stop-color:#DBB400"/>
	<stop  offset="0.405" style="stop-color:#F0D800"/>
	<stop  offset="0.439" style="stop-color:#FFF200"/>
	<stop  offset="0.474" style="stop-color:#FFD705"/>
	<stop  offset="0.519" style="stop-color:#FFBB0A"/>
	<stop  offset="0.565" style="stop-color:#FFA80E"/>
	<stop  offset="0.611" style="stop-color:#FF9C10"/>
	<stop  offset="0.658" style="stop-color:#FF9811"/>
	<stop  offset="0.732" style="stop-color:#FF9A12"/>
	<stop  offset="0.758" style="stop-color:#FFA118"/>
	<stop  offset="0.777" style="stop-color:#FFAC21"/>
	<stop  offset="0.793" style="stop-color:#FFBD2E"/>
	<stop  offset="0.806" style="stop-color:#FFD33F"/>
	<stop  offset="0.809" style="stop-color:#FFDA44"/>
	<stop  offset="0.879" style="stop-color:#DDA928"/>
	<stop  offset="0.96" style="stop-color:#B8750B"/>
	<stop  offset="1" style="stop-color:#AA6100"/>
</linearGradient>
<path style="fill:url(#SVGID_4_);" d="M63.85,99.174c3.126,3.126,8.194,3.126,11.32,0s3.126-8.194,0-11.32l0,0L58.194,70.886
	c-3.178-3.069-8.243-2.981-11.312,0.197c-2.994,3.1-2.994,8.015,0,11.115L63.85,99.174z"/>
<linearGradient id="SVGID_5_" gradientUnits="userSpaceOnUse" x1="-64.2597" y1="569.2465" x2="30.3133" y2="663.8165" gradientTransform="matrix(8 0 0 -8 398.8772 5013.2007)">
	<stop  offset="0" style="stop-color:#AA6100"/>
	<stop  offset="0.093" style="stop-color:#AC6400"/>
	<stop  offset="0.165" style="stop-color:#B26E00"/>
	<stop  offset="0.231" style="stop-color:#BB7E00"/>
	<stop  offset="0.292" style="stop-color:#C99600"/>
	<stop  offset="0.35" style="stop-color:#DBB400"/>
	<stop  offset="0.405" style="stop-color:#F0D800"/>
	<stop  offset="0.439" style="stop-color:#FFF200"/>
	<stop  offset="0.474" style="stop-color:#FFD705"/>
	<stop  offset="0.519" style="stop-color:#FFBB0A"/>
	<stop  offset="0.565" style="stop-color:#FFA80E"/>
	<stop  offset="0.611" style="stop-color:#FF9C10"/>
	<stop  offset="0.658" style="stop-color:#FF9811"/>
	<stop  offset="0.732" style="stop-color:#FF9A12"/>
	<stop  offset="0.758" style="stop-color:#FFA118"/>
	<stop  offset="0.777" style="stop-color:#FFAC21"/>
	<stop  offset="0.793" style="stop-color:#FFBD2E"/>
	<stop  offset="0.806" style="stop-color:#FFD33F"/>
	<stop  offset="0.809" style="stop-color:#FFDA44"/>
	<stop  offset="0.879" style="stop-color:#DDA928"/>
	<stop  offset="0.96" style="stop-color:#B8750B"/>
	<stop  offset="1" style="stop-color:#AA6100"/>
</linearGradient>
<path style="fill:url(#SVGID_5_);" d="M250.522,101.518c2.124,0.002,4.162-0.842,5.664-2.344l16.968-16.976
	c3.07-3.178,2.982-8.242-0.196-11.312c-3.1-2.995-8.016-2.995-11.116,0l-16.976,16.968c-3.128,3.12-3.135,8.186-0.014,11.314
	C246.354,100.674,248.394,101.52,250.522,101.518L250.522,101.518z"/>
<g>
</g>
<g>
</g>
<g>
</g>
<g>
</g>
<g>
</g>
<g>
</g>
<g>
</g>
<g>
</g>
<g>
</g>
<g>
</g>
<g>
</g>
<g>
</g>
<g>
</g>
<g>
</g>
<g>
</g>
</svg>
