<?xml version="1.0" encoding="iso-8859-1"?>
<!-- Generator: Adobe Illustrator 19.0.0, SVG Export Plug-In . SVG Version: 6.00 Build 0)  -->
<svg version="1.1" id="Capa_1" xmlns="http://www.w3.org/2000/svg" xmlns:xlink="http://www.w3.org/1999/xlink" x="0px" y="0px"
	 viewBox="0 0 496.055 496.055" style="enable-background:new 0 0 496.055 496.055;" xml:space="preserve">
<linearGradient id="SVGID_1_" gradientUnits="userSpaceOnUse" x1="-50.1887" y1="559.2156" x2="25.2983" y2="634.7056" gradientTransform="matrix(8 0 0 -8 398.8117 5013.2432)">
	<stop  offset="0" style="stop-color:#AA6100"/>
	<stop  offset="0.093" style="stop-color:#AC6400"/>
	<stop  offset="0.165" style="stop-color:#B26E00"/>
	<stop  offset="0.231" style="stop-color:#BB7E00"/>
	<stop  offset="0.292" style="stop-color:#C99600"/>
	<stop  offset="0.35" style="stop-color:#DBB400"/>
	<stop  offset="0.405" style="stop-color:#F0D800"/>
	<stop  offset="0.439" style="stop-color:#FFF200"/>
	<stop  offset="0.474" style="stop-color:#FFD705"/>
	<stop  offset="0.519" style="stop-color:#FFBB0A"/>
	<stop  offset="0.565" style="stop-color:#FFA80E"/>
	<stop  offset="0.611" style="stop-color:#FF9C10"/>
	<stop  offset="0.658" style="stop-color:#FF9811"/>
	<stop  offset="0.732" style="stop-color:#FF9A12"/>
	<stop  offset="0.758" style="stop-color:#FFA118"/>
	<stop  offset="0.777" style="stop-color:#FFAC21"/>
	<stop  offset="0.793" style="stop-color:#FFBD2E"/>
	<stop  offset="0.806" style="stop-color:#FFD33F"/>
	<stop  offset="0.809" style="stop-color:#FFDA44"/>
	<stop  offset="0.879" style="stop-color:#DDA928"/>
	<stop  offset="0.96" style="stop-color:#B8750B"/>
	<stop  offset="1" style="stop-color:#AA6100"/>
</linearGradient>
<path style="fill:url(#SVGID_1_);" d="M401.499,203.523c-13.419-64.567-76.474-106.166-141.112-93.096
	c-18.821-38.233-57.746-62.435-100.36-62.4c-1.12,0-2.328,0-3.432,0.112h-0.128c-0.548,0.103-1.084,0.261-1.6,0.472
	c-0.5,0.117-0.988,0.283-1.456,0.496h-0.128c-0.31,0.242-0.599,0.51-0.864,0.8c-0.501,0.345-0.96,0.748-1.368,1.2
	c-0.296,0.43-0.548,0.888-0.752,1.368c-0.261,0.423-0.481,0.87-0.656,1.336c-0.142,0.611-0.211,1.237-0.208,1.864
	c-0.064,0.365-0.104,0.734-0.12,1.104v0.12c0.101,0.548,0.256,1.084,0.464,1.6c0.119,0.496,0.282,0.981,0.488,1.448
	c0,0.048,0,0.096,0.048,0.136c19.815,34.476,7.93,78.487-26.546,98.302c-19.588,11.258-43.326,12.669-64.11,3.81
	c-0.168-0.072-0.344-0.048-0.512-0.104c-0.361-0.106-0.73-0.184-1.104-0.232c-0.62-0.155-1.257-0.235-1.896-0.24
	c-0.12,0-0.232-0.048-0.36-0.04c-0.36,0.075-0.713,0.179-1.056,0.312c-2.123,0.38-3.954,1.713-4.968,3.616
	c-0.226,0.276-0.429,0.571-0.608,0.88c-0.056,0.12,0,0.248-0.08,0.368c-0.166,0.52-0.276,1.057-0.328,1.6
	c-0.108,0.527-0.165,1.062-0.168,1.6c0,0.128-0.056,0.24-0.048,0.376c1.649,18.08,7.691,35.483,17.6,50.696
	C6.947,250.744-16.941,322.812,12.776,381.996c17.628,35.108,51.335,59.355,90.227,64.903c5.642,0.768,11.33,1.145,17.024,1.128h252
	c16.136,0.053,32.123-3.087,47.04-9.24c63.384-26.013,93.679-98.484,67.666-161.868c-15.057-36.688-46.746-63.966-85.266-73.396
	H401.499z M66.427,181.235c46.869,12.122,94.69-16.047,106.812-62.916c4.601-17.792,3.495-36.58-3.164-53.708
	c31.661,3.286,59.618,22.095,74.592,50.184c-44.264,15.416-75.531,55.152-80.104,101.8c-14.169-5.649-29.282-8.556-44.536-8.568
	c-13.245,0.022-26.393,2.253-38.904,6.6C74.128,204.542,69.138,193.205,66.427,181.235L66.427,181.235z M412.963,424.027
	c-12.984,5.341-26.897,8.06-40.936,8h-252c-4.949-0.004-9.891-0.352-14.792-1.04C48.386,422.784,8.951,370.049,17.154,313.2
	s60.938-96.284,117.787-88.081c11.653,1.681,22.935,5.329,33.367,10.788c3.912,2.055,8.748,0.549,10.802-3.362
	c0.602-1.147,0.917-2.422,0.918-3.718v-0.8c0.022-57.438,46.603-103.982,104.04-103.96c51.008,0.02,94.474,37.03,102.624,87.384
	c0.529,3.306,3.06,5.933,6.344,6.584c58.538,11.606,96.584,68.469,84.979,127.007C470.96,380.619,446.528,410.285,412.963,424.027z"
	/>
<g>
</g>
<g>
</g>
<g>
</g>
<g>
</g>
<g>
</g>
<g>
</g>
<g>
</g>
<g>
</g>
<g>
</g>
<g>
</g>
<g>
</g>
<g>
</g>
<g>
</g>
<g>
</g>
<g>
</g>
</svg>
