<?xml version="1.0" encoding="iso-8859-1"?>
<!-- Generator: Adobe Illustrator 19.0.0, SVG Export Plug-In . SVG Version: 6.00 Build 0)  -->
<svg version="1.1" id="Capa_1" xmlns="http://www.w3.org/2000/svg" xmlns:xlink="http://www.w3.org/1999/xlink" x="0px" y="0px"
	 viewBox="0 0 496.257 496.257" style="enable-background:new 0 0 496.257 496.257;" xml:space="preserve">
<linearGradient id="SVGID_1_" gradientUnits="userSpaceOnUse" x1="-47.1999" y1="534.1613" x2="27.8711" y2="609.2343" gradientTransform="matrix(8 0 0 -8 399.4386 4820.9849)">
	<stop  offset="0" style="stop-color:#AA6100"/>
	<stop  offset="0.093" style="stop-color:#AC6400"/>
	<stop  offset="0.165" style="stop-color:#B26E00"/>
	<stop  offset="0.231" style="stop-color:#BB7E00"/>
	<stop  offset="0.292" style="stop-color:#C99600"/>
	<stop  offset="0.35" style="stop-color:#DBB400"/>
	<stop  offset="0.405" style="stop-color:#F0D800"/>
	<stop  offset="0.439" style="stop-color:#FFF200"/>
	<stop  offset="0.474" style="stop-color:#FFD705"/>
	<stop  offset="0.519" style="stop-color:#FFBB0A"/>
	<stop  offset="0.565" style="stop-color:#FFA80E"/>
	<stop  offset="0.611" style="stop-color:#FF9C10"/>
	<stop  offset="0.658" style="stop-color:#FF9811"/>
	<stop  offset="0.732" style="stop-color:#FF9A12"/>
	<stop  offset="0.758" style="stop-color:#FFA118"/>
	<stop  offset="0.777" style="stop-color:#FFAC21"/>
	<stop  offset="0.793" style="stop-color:#FFBD2E"/>
	<stop  offset="0.806" style="stop-color:#FFD33F"/>
	<stop  offset="0.809" style="stop-color:#FFDA44"/>
	<stop  offset="0.879" style="stop-color:#DDA928"/>
	<stop  offset="0.96" style="stop-color:#B8750B"/>
	<stop  offset="1" style="stop-color:#AA6100"/>
</linearGradient>
<path style="fill:url(#SVGID_1_);" d="M496.257,182.985c-0.061-34.063-22.812-63.912-55.64-73
	c-4.596-19.322-16.844-35.948-33.936-46.064c-19.277-11.394-42.668-13.478-63.656-5.672c-20.783,7.554-36.823,24.412-43.336,45.544
	c-5.221-0.716-10.482-1.093-15.752-1.128c-61.816,0.081-113.489,47.041-119.464,108.568
	c-61.562-24.544-131.364,5.464-155.909,67.026s5.464,131.364,67.026,155.909c8.788,3.504,17.959,5.956,27.323,7.305
	c5.64,0.79,11.329,1.188,17.024,1.192h252c16.136,0.054,32.123-3.086,47.04-9.24c63.321-25.911,93.647-98.248,67.736-161.568
	c-4.497-10.99-10.551-21.277-17.976-30.544C486.184,226.974,496.284,205.568,496.257,182.985L496.257,182.985z M348.361,73.329
	c16.511-6.196,34.937-4.599,50.136,4.344c14.651,8.658,24.688,23.389,27.384,40.192c0.529,3.306,3.06,5.933,6.344,6.584
	c32.301,6.401,53.298,37.775,46.897,70.076c-2.733,13.794-10.254,26.178-21.233,34.964c-15.715-15.264-35.208-26.071-56.48-31.312
	c-9.026-44.266-42.29-79.632-85.92-91.352C320.837,91.275,332.915,78.969,348.361,73.329z M412.873,418.665
	c-12.984,5.341-26.897,8.06-40.936,8h-252c-4.949-0.004-9.891-0.352-14.792-1.04c-56.849-8.203-96.284-60.938-88.081-117.787
	s60.938-96.284,117.787-88.081c11.653,1.681,22.935,5.329,33.367,10.788c3.912,2.055,8.748,0.549,10.802-3.362
	c0.602-1.147,0.917-2.422,0.918-3.718v-0.8c0.022-57.438,46.603-103.982,104.04-103.96c51.008,0.02,94.474,37.03,102.624,87.384
	c0.528,3.304,3.055,5.93,6.336,6.584c58.539,11.603,96.588,68.464,84.985,127.003C470.87,375.254,446.439,404.921,412.873,418.665z"
	/>
<g>
</g>
<g>
</g>
<g>
</g>
<g>
</g>
<g>
</g>
<g>
</g>
<g>
</g>
<g>
</g>
<g>
</g>
<g>
</g>
<g>
</g>
<g>
</g>
<g>
</g>
<g>
</g>
<g>
</g>
</svg>
